# xmcd
# 
# Track frame offsets:
#	150
#	19521
#	31795
#	47288
#	65017
#	82354
#	99305
#	114661
#	130085
#	158248
#	179593
#
# Disc length: 2560 seconds
#
# Revision: 2
# Processed by: cddbd v1.5.1PL0 Copyright (c) Steve Scherf et al.
# Submitted via: Audio-CD-Archiv 3.00.487
#
DISCID=8909fe0b
DTITLE=Joy Division - Life Before Death
DYEAR=1900
DGENRE=blues
TTITLE0=I Remember Nothing (Live In Leeds 08.09.79)
TTITLE1=Wilderness (Live In Leeds 08.09.79)
TTITLE2=Transmission (Live In Leeds 08.09.79)
TTITLE3=Colony (Live In Leeds 08.09.79)
TTITLE4=Disorder (Live In Leeds 08.09.79)
TTITLE5=Insight (Live In Leeds 08.09.79)
TTITLE6=Shadowplay (Live In Leeds 08.09.79)
TTITLE7=She's Lost Control (Live In Leeds 08.09.79)
TTITLE8=Atrocity Exhibition (Live In Leeds 08.09.79)
TTITLE9=Dead Souls (Live In Leeds 08.09.79)
TTITLE10=Cross Of Iron (Live In Preston 20.02.80)
EXTD=
EXTT0=
EXTT1=
EXTT2=
EXTT3=
EXTT4=
EXTT5=
EXTT6=
EXTT7=
EXTT8=
EXTT9=
EXTT10=
PLAYORDER=
